<svg width="24" height="24" viewBox="0 0 24 24" fill="none" xmlns="http://www.w3.org/2000/svg">
<path fill-rule="evenodd" clip-rule="evenodd" d="M13.9948 2.05714C9.60514 2.05714 6.04666 5.61561 6.04666 10.0052C6.04666 14.3948 9.60514 17.9533 13.9948 17.9533C18.3844 17.9533 21.9429 14.3948 21.9429 10.0052C21.9429 5.61561 18.3844 2.05714 13.9948 2.05714ZM3.9895 10.0052C3.9895 4.47948 8.46901 0 13.9948 0C19.5205 0 24 4.47948 24 10.0052C24 15.5309 19.5205 20.0104 13.9948 20.0104C8.46901 20.0104 3.9895 15.5309 3.9895 10.0052Z" fill="#1D1D1B"/>
<path fill-rule="evenodd" clip-rule="evenodd" d="M8.3747 15.6254C8.77638 16.027 8.77638 16.6783 8.3747 17.08L1.75589 23.6987C1.35421 24.1004 0.702948 24.1004 0.301264 23.6987C-0.100421 23.2971 -0.100421 22.6458 0.301263 22.2441L6.92007 15.6254C7.32175 15.2237 7.97301 15.2237 8.3747 15.6254Z" fill="#1D1D1B"/>
</svg>
