<?xml version="1.0" encoding="UTF-8"?><!DOCTYPE svg PUBLIC "-//W3C//DTD SVG 1.1//EN" "http://www.w3.org/Graphics/SVG/1.1/DTD/svg11.dtd"><svg xmlns="http://www.w3.org/2000/svg" xmlns:xlink="http://www.w3.org/1999/xlink"><symbol id="glass"><path fill-rule="evenodd" clip-rule="evenodd" d="M13.995 2.057a7.948 7.948 0 1 0 0 15.896 7.948 7.948 0 0 0 0-15.896ZM3.99 10.005C3.99 4.48 8.468 0 13.995 0 19.52 0 24 4.48 24 10.005c0 5.526-4.48 10.005-10.005 10.005-5.526 0-10.005-4.48-10.005-10.005Z"/><path fill-rule="evenodd" clip-rule="evenodd" d="M8.375 15.625a1.029 1.029 0 0 1 0 1.455l-6.62 6.619a1.029 1.029 0 1 1-1.454-1.455l6.62-6.619a1.029 1.029 0 0 1 1.454 0Z"/></symbol></svg>